<svg width="888" height="476" fill="none" xmlns="http://www.w3.org/2000/svg">
  <g clip-path="url(#clip0)">
    <path d="M270.985 36.477a66.01 66.01 0 00-46.669-19.331 66.002 66.002 0 00-46.67 19.331l-.017.018a65.982 65.982 0 00-93.303 93.303l-.018.017 93.338 93.339 93.339-93.339a66.001 66.001 0 000-93.338z" fill="#FF6584"/>
    <path d="M553.43 409.452H63.75a10.018 10.018 0 01-1.83-.145L293.517 8.15A16.223 16.223 0 01307.63-.08a16.219 16.219 0 0114.114 8.23l155.43 269.208 7.446 12.881 68.81 119.213z" fill="#38B2AC"/>
    <path opacity=".2" d="M553.43 409.452H386.241l82.073-119.213 5.906-8.587 2.953-4.294 7.446 12.881 68.811 119.213z" fill="#000"/>
    <path d="M826.08 409H402.546l82.072-119.213 5.907-8.588 106.947-155.357c7.012-10.182 23.879-10.816 32.122-1.92a19.318 19.318 0 011.54 1.92L826.08 409z" fill="#639"/>
    <path d="M0 407.933h888v2.241H0v-2.241z" fill="#3F3D56"/>
    <path d="M417.727 383.372c16.656-6.452 28.516-15.921 26.491-21.15-2.026-5.229-17.17-4.237-33.826 2.216-16.656 6.452-28.516 15.921-26.491 21.15 2.026 5.229 17.17 4.237 33.826-2.216z" fill="#2F2E41"/>
    <path d="M349.27 447.432c35.724 0 64.684-28.96 64.684-64.684s-28.96-64.684-64.684-64.684-64.684 28.96-64.684 64.684 28.96 64.684 64.684 64.684z" fill="#2F2E41"/>
    <path d="M319.794 433.513h19.651v35.208h-19.651v-35.208zm39.301 0h19.651v35.208h-19.651v-35.208z" fill="#2F2E41"/>
    <path d="M336.169 475.271c9.044 0 16.376-2.749 16.376-6.141s-7.332-6.141-16.376-6.141-16.376 2.749-16.376 6.141 7.332 6.141 16.376 6.141zM375.471 474.452c9.044 0 16.376-2.749 16.376-6.141s-7.332-6.141-16.376-6.141-16.376 2.749-16.376 6.141 7.332 6.141 16.376 6.141z" fill="#2F2E41"/>
    <path d="M350.907 388.48c12.209 0 22.107-9.898 22.107-22.107s-9.898-22.107-22.107-22.107-22.107 9.898-22.107 22.107 9.898 22.107 22.107 22.107z" fill="#fff"/>
    <path d="M350.907 373.742a7.369 7.369 0 100-14.738 7.369 7.369 0 100 14.738z" fill="#3F3D56"/>
    <path d="M291.593 397.914c12.63-12.631 19.655-26.084 15.69-30.049-3.965-3.965-17.418 3.06-30.049 15.69-12.63 12.63-19.655 26.084-15.69 30.049 3.965 3.965 17.418-3.06 30.049-15.69z" fill="#2F2E41"/>
    <path d="M317.497 406.084c0 6.33 16.301 18.832 34.39 18.832 18.089 0 35.047-17.824 35.047-24.155 0-6.331-16.96 1.229-35.048 1.229s-34.389-2.237-34.389 4.094z" fill="#fff"/>
    <path d="M498.1 385.584c2.026-5.228-9.835-14.698-26.491-21.15-16.655-6.452-31.8-7.444-33.825-2.216-2.026 5.229 9.834 14.698 26.49 21.151 16.656 6.452 31.8 7.444 33.826 2.215z" fill="#2F2E41"/>
    <path d="M532.73 447.432c35.724 0 64.684-28.96 64.684-64.684s-28.96-64.684-64.684-64.684-64.684 28.96-64.684 64.684 28.96 64.684 64.684 64.684z" fill="#2F2E41"/>
    <path d="M562.206 468.72h-19.651v-35.207h19.651v35.207zm-39.301 0h-19.651v-35.207h19.65l.001 35.207z" fill="#2F2E41"/>
    <path d="M545.831 475.271c9.044 0 16.376-2.749 16.376-6.141s-7.332-6.141-16.376-6.141-16.376 2.749-16.376 6.141 7.332 6.141 16.376 6.141zM506.529 474.452c9.044 0 16.376-2.749 16.376-6.141s-7.332-6.141-16.376-6.141-16.376 2.749-16.376 6.141 7.332 6.141 16.376 6.141z" fill="#2F2E41"/>
    <path d="M531.093 388.48c12.209 0 22.107-9.898 22.107-22.107s-9.898-22.107-22.107-22.107-22.107 9.898-22.107 22.107 9.898 22.107 22.107 22.107z" fill="#fff"/>
    <path d="M531.093 373.742a7.369 7.369 0 100-14.738 7.369 7.369 0 100 14.738z" fill="#3F3D56"/>
    <path d="M620.455 413.604c3.965-3.965-3.06-17.419-15.69-30.049-12.631-12.63-26.084-19.655-30.049-15.69-3.965 3.965 3.06 17.418 15.69 30.049 12.631 12.63 26.084 19.655 30.049 15.69z" fill="#2F2E41"/>
    <path d="M564.503 406.084c0 6.33-16.301 18.832-34.39 18.832-18.089 0-35.047-17.824-35.047-24.155 0-6.331 16.96 1.229 35.048 1.229s34.389-2.237 34.389 4.094z" fill="#fff"/>
    <path d="M888 314.863c0 41.8-24.85 56.396-55.504 56.396-30.654 0-55.505-14.595-55.505-56.396s55.505-94.98 55.505-94.98S888 273.062 888 314.864v-.001z" fill="#E6E6E6"/>
    <path d="M830.474 364.865l.568-34.984 23.657-43.28-23.568 37.792.256-15.73 16.304-31.313-16.237 27.15.46-28.291 17.459-24.929-17.387 20.48.287-51.876-1.804 68.675.148-2.833-17.751-27.171 17.466 32.609-1.654 31.597-.049-.839-20.463-28.593 20.401 31.556-.207 3.951-.037.06.017.324-4.196 80.163h5.607l.672-41.406 20.352-31.478-20.301 28.366z" fill="#3F3D56"/>
    <g clip-path="url(#clip1)">
    </g>
    <g clip-path="url(#clip2)">
    </g>
  </g>
  <defs>
    <clipPath id="clip0">
      <path fill="#fff" d="M0 0h888v475.271H0z"/>
    </clipPath>
    <clipPath id="clip1">
      <path transform="rotate(-24 290.751 289.782)" fill="#fff" d="M290.751 289.782h64v64h-64z"/>
    </clipPath>
    <clipPath id="clip2">
      <path transform="rotate(22 534.73 273)" fill="#fff" d="M534.73 273h50v50h-50z"/>
    </clipPath>
    <linearGradient id="paint0_linear" x1="301.948" y1="302.639" x2="347.445" y2="334.539" gradientUnits="userSpaceOnUse">
      <stop stop-color="#2298BD"/>
      <stop offset="1" stop-color="#0ED7B5"/>
    </linearGradient>
  </defs>
</svg>
